<svg width="100" height="100" viewBox="0 0 100 100" xmlns="http://www.w3.org/2000/svg">
  <!-- CondoFlow — "Vizinhança": o conjunto de condomínios sob a mesma gestão.
       Mesmo desenho de src/components/Logo.js (LogoMark). -->
  <rect x="1.5" y="1.5" width="97" height="97" rx="26" fill="#eef3fb" stroke="#1e3a8a" stroke-opacity="0.18" stroke-width="1.5"/>

  <rect x="45" y="23" width="25" height="56" rx="3.5" fill="#2a4ba0"/>
  <g fill="#eef3fb">
    <rect x="49" y="29" width="5" height="5" rx="1.2"/><rect x="60" y="29" width="5" height="5" rx="1.2"/>
    <rect x="49" y="38" width="5" height="5" rx="1.2"/><rect x="60" y="38" width="5" height="5" rx="1.2"/>
    <rect x="49" y="47" width="5" height="5" rx="1.2"/>
    <rect x="49" y="56" width="5" height="5" rx="1.2"/><rect x="60" y="56" width="5" height="5" rx="1.2"/>
  </g>
  <rect x="60" y="47" width="5" height="5" rx="1.2" fill="#f6883c"/>

  <rect x="16" y="41" width="26" height="38" rx="3.5" fill="#1e3a8a"/>
  <g fill="#eef3fb">
    <rect x="20" y="47" width="5" height="5" rx="1.2"/><rect x="31" y="47" width="5" height="5" rx="1.2"/>
    <rect x="20" y="56" width="5" height="5" rx="1.2"/><rect x="31" y="56" width="5" height="5" rx="1.2"/>
  </g>
  <rect x="24" y="68" width="9" height="11" rx="2" fill="#f6883c"/>

  <rect x="72" y="50" width="14" height="29" rx="3.5" fill="#1e3a8a"/>
  <g fill="#eef3fb">
    <rect x="76" y="56" width="5" height="5" rx="1.2"/><rect x="76" y="65" width="5" height="5" rx="1.2"/>
  </g>

  <rect x="12" y="79" width="76" height="5" rx="2.5" fill="#c3d6f0"/>
  <circle cx="43" cy="70" r="7" fill="#3f9c74"/>
  <rect x="41.8" y="74" width="2.4" height="6" rx="1.2" fill="#2f7a5a"/>
</svg>
